<svg width="10" height="7" viewBox="0 0 10 7" fill="none" xmlns="http://www.w3.org/2000/svg">
<path fill-rule="evenodd" clip-rule="evenodd" d="M9.81692 0.175498C9.93415 0.288016 10 0.440538 10 0.599562C10 0.758587 9.93415 0.911109 9.81692 1.02363L3.76549 6.8245C3.64811 6.93688 3.489 7 3.32311 7C3.15721 7 2.9981 6.93688 2.88073 6.8245L0.168014 4.22411C0.0574359 4.11035 -0.00276394 3.95989 9.75299e-05 3.80443C0.002959 3.64896 0.0686584 3.50063 0.183354 3.39069C0.29805 3.28074 0.452788 3.21776 0.614967 3.21502C0.777146 3.21227 0.934105 3.26998 1.05278 3.37598L3.32311 5.55231L8.93216 0.175498C9.04954 0.063121 9.20865 0 9.37454 0C9.54043 0 9.69954 0.063121 9.81692 0.175498V0.175498Z" fill="#E16363"/>
</svg>
