<svg width="30" height="29" viewBox="0 0 30 29" fill="none" xmlns="http://www.w3.org/2000/svg">
<path d="M14.7508 0C6.60523 0 0 6.58911 0 14.7175C0 21.2201 4.22656 26.7369 10.0875 28.683C10.8247 28.8192 11.0954 28.3637 11.0954 27.975C11.0954 27.624 11.0817 26.4647 11.0753 25.2349C6.97163 26.1252 6.10571 23.4984 6.10571 23.4984C5.4347 21.7972 4.46789 21.3449 4.46789 21.3449C3.12955 20.4315 4.56878 20.4502 4.56878 20.4502C6.05001 20.554 6.82996 21.9669 6.82996 21.9669C8.14558 24.2169 10.2807 23.5664 11.1225 23.1903C11.2549 22.2391 11.6371 21.5898 12.059 21.2223C8.78263 20.8502 5.33846 19.5882 5.33846 13.9489C5.33846 12.342 5.91469 11.0291 6.85829 9.99846C6.70514 9.62776 6.20024 8.13086 7.00119 6.10363C7.00119 6.10363 8.23987 5.70808 11.0587 7.61223C12.2354 7.28614 13.4972 7.1226 14.7508 7.117C16.0044 7.1226 17.2673 7.28614 18.4461 7.61223C21.2615 5.70808 22.4985 6.10363 22.4985 6.10363C23.3014 8.13086 22.7962 9.62776 22.6431 9.99846C23.5889 11.0291 24.1612 12.342 24.1612 13.9489C24.1612 19.6016 20.7105 20.8463 17.4258 21.2106C17.9549 21.6673 18.4263 22.563 18.4263 23.9361C18.4263 25.9053 18.4092 27.4902 18.4092 27.975C18.4092 28.3666 18.6747 28.8255 19.4224 28.681C25.2802 26.7327 29.5014 21.2179 29.5014 14.7175C29.5014 6.58911 22.8971 0 14.7508 0ZM5.52466 20.9654C5.49217 21.0385 5.37688 21.0605 5.27184 21.0103C5.16485 20.9623 5.10476 20.8626 5.13945 20.7892C5.17121 20.7139 5.28674 20.693 5.39349 20.7434C5.50072 20.7914 5.56179 20.8921 5.52466 20.9654ZM6.25024 21.6114C6.17989 21.6765 6.04237 21.6462 5.94906 21.5434C5.85257 21.4408 5.83449 21.3036 5.90582 21.2375C5.97837 21.1725 6.11174 21.2029 6.20847 21.3055C6.30495 21.4094 6.32376 21.5456 6.25024 21.6114ZM6.74801 22.4379C6.65763 22.5005 6.50985 22.4418 6.41849 22.3109C6.32811 22.18 6.32811 22.0231 6.42045 21.9602C6.51205 21.8973 6.65763 21.9539 6.75021 22.0838C6.84034 22.2168 6.84034 22.3738 6.74801 22.4379ZM7.58985 23.3951C7.509 23.484 7.33679 23.4601 7.21075 23.3388C7.08177 23.2201 7.04587 23.0517 7.12696 22.9627C7.20879 22.8735 7.38198 22.8986 7.509 23.019C7.63699 23.1375 7.67608 23.3071 7.58985 23.3951ZM8.67785 23.7182C8.64218 23.8335 8.47633 23.8859 8.30925 23.8369C8.14241 23.7864 8.03323 23.6514 8.06693 23.5349C8.10162 23.4189 8.26821 23.3643 8.43651 23.4167C8.6031 23.4669 8.71253 23.601 8.67785 23.7182ZM9.91603 23.8553C9.92018 23.9766 9.77851 24.0773 9.60313 24.0795C9.42677 24.0834 9.28411 23.9852 9.28216 23.8657C9.28216 23.7432 9.42066 23.6435 9.59702 23.6406C9.7724 23.6371 9.91603 23.7346 9.91603 23.8553ZM11.1324 23.8087C11.1534 23.9272 11.0315 24.0488 10.8574 24.0812C10.6861 24.1124 10.5276 24.0393 10.5059 23.9218C10.4846 23.8005 10.6087 23.6788 10.7797 23.6474C10.9541 23.6172 11.1102 23.6883 11.1324 23.8087Z" fill="white"/>
</svg>
