<svg width="13" height="13" viewBox="0 0 13 13" fill="none" xmlns="http://www.w3.org/2000/svg">
<path d="M5.09583 8.68333H7.90417V7.98333H5.09583V8.68333ZM7.90417 8.68333C8.96041 8.68333 9.81667 9.53959 9.81667 10.5958H10.5167C10.5167 9.15299 9.34701 7.98333 7.90417 7.98333V8.68333ZM5.09583 7.98333C3.65299 7.98333 2.48333 9.15299 2.48333 10.5958H3.18333C3.18333 9.53959 4.03959 8.68333 5.09583 8.68333V7.98333ZM7.98333 4.66667C7.98333 5.48589 7.31922 6.15 6.5 6.15V6.85C7.70582 6.85 8.68333 5.87249 8.68333 4.66667H7.98333ZM6.5 6.15C5.68078 6.15 5.01667 5.48589 5.01667 4.66667H4.31667C4.31667 5.87249 5.29418 6.85 6.5 6.85V6.15ZM5.01667 4.66667C5.01667 3.84744 5.68078 3.18333 6.5 3.18333V2.48333C5.29418 2.48333 4.31667 3.46084 4.31667 4.66667H5.01667ZM6.5 3.18333C7.31922 3.18333 7.98333 3.84744 7.98333 4.66667H8.68333C8.68333 3.46084 7.70582 2.48333 6.5 2.48333V3.18333ZM11.65 6.5C11.65 9.34427 9.34427 11.65 6.5 11.65V12.35C9.73087 12.35 12.35 9.73087 12.35 6.5H11.65ZM6.5 11.65C3.65573 11.65 1.35 9.34427 1.35 6.5H0.65C0.65 9.73087 3.26913 12.35 6.5 12.35V11.65ZM1.35 6.5C1.35 3.65573 3.65573 1.35 6.5 1.35V0.65C3.26913 0.65 0.65 3.26913 0.65 6.5H1.35ZM6.5 1.35C9.34427 1.35 11.65 3.65573 11.65 6.5H12.35C12.35 3.26913 9.73087 0.65 6.5 0.65V1.35Z" fill="black"/>
</svg>
