<svg width="13" height="13" viewBox="0 0 13 13" fill="none" xmlns="http://www.w3.org/2000/svg">
<path fill-rule="evenodd" clip-rule="evenodd" d="M0 2.23438C0 1.4495 0.637 0.8125 1.42188 0.8125H11.5781C12.363 0.8125 13 1.4495 13 2.23438V10.7656C13 11.1427 12.8502 11.5044 12.5835 11.771C12.3169 12.0377 11.9552 12.1875 11.5781 12.1875H1.42188C1.04477 12.1875 0.683111 12.0377 0.416458 11.771C0.149804 11.5044 0 11.1427 0 10.7656L0 2.23438ZM1.42188 2.03125C1.368 2.03125 1.31634 2.05265 1.27824 2.09074C1.24015 2.12884 1.21875 2.1805 1.21875 2.23438V10.7656C1.21875 10.8777 1.30975 10.9688 1.42188 10.9688H11.5781C11.632 10.9688 11.6837 10.9473 11.7218 10.9093C11.7598 10.8712 11.7812 10.8195 11.7812 10.7656V2.23438C11.7812 2.1805 11.7598 2.12884 11.7218 2.09074C11.6837 2.05265 11.632 2.03125 11.5781 2.03125H1.42188ZM5.89062 6.5C5.89048 6.66156 5.82619 6.81645 5.71188 6.93062L3.88375 8.75875C3.82796 8.81862 3.76069 8.86664 3.68594 8.89995C3.61119 8.93325 3.5305 8.95116 3.44867 8.95261C3.36685 8.95405 3.28558 8.939 3.2097 8.90835C3.13382 8.8777 3.0649 8.83208 3.00703 8.77422C2.94917 8.71635 2.90355 8.64743 2.8729 8.57155C2.84225 8.49567 2.8272 8.4144 2.82864 8.33258C2.83009 8.25075 2.848 8.17006 2.8813 8.09531C2.91461 8.02056 2.96263 7.95329 3.0225 7.8975L4.42 6.5L3.0225 5.1025C2.96263 5.04671 2.91461 4.97944 2.8813 4.90469C2.848 4.82994 2.83009 4.74925 2.82864 4.66742C2.8272 4.5856 2.84225 4.50433 2.8729 4.42845C2.90355 4.35257 2.94917 4.28365 3.00703 4.22578C3.0649 4.16792 3.13382 4.1223 3.2097 4.09165C3.28558 4.061 3.36685 4.04595 3.44867 4.04739C3.5305 4.04884 3.61119 4.06675 3.68594 4.10005C3.76069 4.13336 3.82796 4.18138 3.88375 4.24125L5.71188 6.06937C5.82644 6.18312 5.89062 6.33831 5.89062 6.5ZM7.10938 7.71875C6.94776 7.71875 6.79276 7.78295 6.67848 7.89723C6.5642 8.01151 6.5 8.16651 6.5 8.32812C6.5 8.48974 6.5642 8.64474 6.67848 8.75902C6.79276 8.8733 6.94776 8.9375 7.10938 8.9375H9.54688C9.70849 8.9375 9.86349 8.8733 9.97777 8.75902C10.092 8.64474 10.1562 8.48974 10.1562 8.32812C10.1562 8.16651 10.092 8.01151 9.97777 7.89723C9.86349 7.78295 9.70849 7.71875 9.54688 7.71875H7.10938Z" fill="black"/>
</svg>
