<svg width="15" height="15" viewBox="0 0 15 15" fill="none" xmlns="http://www.w3.org/2000/svg">
<path fill-rule="evenodd" clip-rule="evenodd" d="M0 6.32812C0 5.4225 0.735 4.6875 1.64062 4.6875H3.04688C3.23336 4.6875 3.4122 4.76158 3.54406 4.89344C3.67592 5.0253 3.75 5.20414 3.75 5.39062C3.75 5.57711 3.67592 5.75595 3.54406 5.88781C3.4122 6.01967 3.23336 6.09375 3.04688 6.09375H1.64062C1.57846 6.09375 1.51885 6.11844 1.4749 6.1624C1.43094 6.20635 1.40625 6.26596 1.40625 6.32812V13.3594C1.40625 13.4887 1.51125 13.5938 1.64062 13.5938H8.67188C8.73404 13.5938 8.79365 13.5691 8.8376 13.5251C8.88156 13.4811 8.90625 13.4215 8.90625 13.3594V11.9531C8.90625 11.7666 8.98033 11.5878 9.11219 11.4559C9.24405 11.3241 9.42289 11.25 9.60938 11.25C9.79586 11.25 9.9747 11.3241 10.1066 11.4559C10.2384 11.5878 10.3125 11.7666 10.3125 11.9531V13.3594C10.3125 13.7945 10.1396 14.2118 9.83197 14.5195C9.5243 14.8271 9.107 15 8.67188 15H1.64062C1.2055 15 0.788205 14.8271 0.480528 14.5195C0.172851 14.2118 0 13.7945 0 13.3594L0 6.32812Z" fill="white"/>
<path fill-rule="evenodd" clip-rule="evenodd" d="M4.6875 1.64062C4.6875 0.735 5.4225 0 6.32812 0H13.3594C14.265 0 15 0.735 15 1.64062V8.67188C15 9.107 14.8271 9.5243 14.5195 9.83197C14.2118 10.1396 13.7945 10.3125 13.3594 10.3125H6.32812C5.893 10.3125 5.4757 10.1396 5.16803 9.83197C4.86035 9.5243 4.6875 9.107 4.6875 8.67188V1.64062ZM6.32812 1.40625C6.26596 1.40625 6.20635 1.43094 6.1624 1.4749C6.11844 1.51885 6.09375 1.57846 6.09375 1.64062V8.67188C6.09375 8.80125 6.19875 8.90625 6.32812 8.90625H13.3594C13.4215 8.90625 13.4811 8.88156 13.5251 8.8376C13.5691 8.79365 13.5938 8.73404 13.5938 8.67188V1.64062C13.5938 1.57846 13.5691 1.51885 13.5251 1.4749C13.4811 1.43094 13.4215 1.40625 13.3594 1.40625H6.32812Z" fill="white"/>
</svg>
