<svg width="14" height="18" viewBox="0 0 14 18" fill="none" xmlns="http://www.w3.org/2000/svg">
<path d="M1 1V0.5C0.723858 0.5 0.5 0.723858 0.5 1H1ZM13 17V17.5C13.2761 17.5 13.5 17.2761 13.5 17H13ZM1 17H0.5C0.5 17.2761 0.723858 17.5 1 17.5V17ZM8.71429 1L9.07421 0.652932C8.97997 0.555205 8.85005 0.5 8.71429 0.5V1ZM13 5.44444H13.5C13.5 5.31498 13.4498 5.19057 13.3599 5.09738L13 5.44444ZM13 16.5H1V17.5H13V16.5ZM1.5 17V1H0.5V17H1.5ZM1 1.5H8.71429V0.5H1V1.5ZM12.5 5.44444V17H13.5V5.44444H12.5ZM8.35436 1.34707L12.6401 5.79151L13.3599 5.09738L9.07421 0.652932L8.35436 1.34707ZM7.35714 1V4.55556H8.35714V1H7.35714ZM9.57143 6.83333H13V5.83333H9.57143V6.83333ZM7.35714 4.55556C7.35714 5.79624 8.33153 6.83333 9.57143 6.83333V5.83333C8.91778 5.83333 8.35714 5.27855 8.35714 4.55556H7.35714Z" fill="#E16363"/>
</svg>
