<svg width="22" height="28" viewBox="0 0 22 28" fill="none" xmlns="http://www.w3.org/2000/svg">
<path d="M1 1V0.25C0.585786 0.25 0.25 0.585786 0.25 1L1 1ZM21 27V27.75C21.4142 27.75 21.75 27.4142 21.75 27H21ZM1 27H0.25C0.25 27.4142 0.585786 27.75 1 27.75L1 27ZM13.8571 1L14.3904 0.472608C14.2495 0.33016 14.0575 0.25 13.8571 0.25V1ZM21 8.22222H21.75C21.75 8.02474 21.6721 7.83524 21.5333 7.69483L21 8.22222ZM5.28571 20.4722C4.8715 20.4722 4.53571 20.808 4.53571 21.2222C4.53571 21.6364 4.8715 21.9722 5.28571 21.9722V20.4722ZM16.7143 21.9722C17.1285 21.9722 17.4643 21.6364 17.4643 21.2222C17.4643 20.808 17.1285 20.4722 16.7143 20.4722V21.9722ZM5.28571 14.6944C4.8715 14.6944 4.53571 15.0302 4.53571 15.4444C4.53571 15.8587 4.8715 16.1944 5.28571 16.1944V14.6944ZM13.8571 16.1944C14.2714 16.1944 14.6071 15.8587 14.6071 15.4444C14.6071 15.0302 14.2714 14.6944 13.8571 14.6944V16.1944ZM21 26.25H1V27.75H21V26.25ZM1.75 27V1H0.25V27H1.75ZM1 1.75H13.8571V0.25H1V1.75ZM20.25 8.22222V27H21.75V8.22222H20.25ZM13.3239 1.52739L20.4667 8.74961L21.5333 7.69483L14.3904 0.472608L13.3239 1.52739ZM11.6786 1V6.77778H13.1786V1H11.6786ZM15.2857 10.4167H21V8.91667H15.2857V10.4167ZM11.6786 6.77778C11.6786 8.77965 13.2858 10.4167 15.2857 10.4167V8.91667C14.1298 8.91667 13.1786 7.96689 13.1786 6.77778H11.6786ZM5.28571 21.9722H16.7143V20.4722H5.28571V21.9722ZM5.28571 16.1944H13.8571V14.6944H5.28571V16.1944Z" fill="black"/>
</svg>
